# xmcd
# 
# Track frame offsets:
#     150
#     23502
#     36554
#     52334
#     67887
# 
# Disc length: 1216
# 
# Revision: 0
# Processed by: cddbd v1.5.2PL0 Copyright (c) Steve Scherf et al.
# Submitted via: fre:ac v1.1beta1pre2
# 
DISCID=4004be05
DTITLE=サロメの唇 - 熱海秘宝館のテーマ
DYEAR=2009
DGENRE=JPop
TTITLE0=熱海秘宝館のテーマ
TTITLE1=熱い砂
TTITLE2=汽車にゆられて
TTITLE3=四季咲きのバラ
TTITLE4=熱海秘宝館のテーマ(カラオケ)
EXTD=
EXTT0=
EXTT1=
EXTT2=
EXTT3=
EXTT4=
PLAYORDER=
